#!OML:ASF H:\MichaelJackson\Top Level 1\Subject 1\Session 1\male.ASF
:FULLY-SPECIFIED
:DEGREES
1444
root -5.49148 16.8827 21.6692 -173.931 -198.113 -189.777
lowerback 2.65537 1.889 5.98225
upperback 2.42154 2.61567 3.07906
thorax 1.13119 1.37305 -0.217632
lowerneck -10.3751 -4.43639 0.155902
upperneck 22.9458 -6.85849 3.11361
head 8.99996 -2.8343 0.29823
rclavicle 1.18302e-013 1.98785e-014
rhumerus -47.1412 -3.94637 -83.2111
rradius 39.7569
rwrist 5.42245
rhand -24.603 -22.8323
rfingers 7.12502
rthumb 1.895 -52.8036
lclavicle 1.18302e-013 1.98785e-014
lhumerus -26.5967 -14.2077 87.0391
lradius 109.791
lwrist 63.1043
lhand -24.8281 20.3587
lfingers 7.12502
lthumb 1.67762 50.3318
rfemur -19.8651 -3.12284 32.8484
rtibia 32.6533
rfoot -18.184 17.8647
rtoes 34.9511
lfemur -50.5358 -8.5903 -6.12034
ltibia 71.9721
lfoot 7.96488 3.03363
ltoes 10.4159
1445
root -5.48106 16.8876 21.6957 -173.9 -198.033 -189.788
lowerback 2.62615 1.84746 5.90753
upperback 2.41354 2.55703 3.13645
thorax 1.13027 1.34221 -0.115978
lowerneck -10.4267 -4.41787 0.090568
upperneck 22.7405 -6.80583 3.07981
head 8.9385 -2.82428 0.303671
rclavicle 1.96051e-014 2.57426e-014
rhumerus -47.2618 -3.84409 -83.0584
rradius 40.0405
rwrist 5.00877
rhand -24.2836 -22.7905
rfingers 7.12502
rthumb 2.20342 -52.7588
lclavicle 1.96051e-014 2.57426e-014
lhumerus -26.6752 -13.9879 87.0001
lradius 108.907
lwrist 62.0129
lhand -24.0059 19.8498
lfingers 7.12502
lthumb 2.47169 49.8152
rfemur -19.665 -3.28862 32.8462
rtibia 32.419
rfoot -18.2354 18.1692
rtoes 34.8909
lfemur -50.922 -7.90348 -6.29073
ltibia 72.4693
lfoot 8.48867 2.34804
ltoes 13.6755
1446
root -5.47022 16.8898 21.7234 -173.861 -197.943 -189.822
lowerback 2.61541 1.81814 5.94061
upperback 2.3574 2.52077 3.13387
thorax 1.07828 1.32255 -0.137661
lowerneck -10.3801 -4.40201 0.0639936
upperneck 22.4744 -6.77127 3.09504
head 8.83901 -2.81715 0.320219
rclavicle -2.28602e-015 -1.07344e-014
rhumerus -47.4517 -3.83541 -82.9877
rradius 40.2937
rwrist 4.69017
rhand -24.2006 -22.7294
rfingers 7.12502
rthumb 2.28365 -52.6969
lclavicle -2.28602e-015 -1.07344e-014
lhumerus -26.8198 -13.8394 86.9594
lradius 107.859
lwrist 60.6326
lhand -23.2999 19.4252
lfingers 7.12502
lthumb 3.15348 49.3816
rfemur -19.4671 -3.46398 32.8672
rtibia 32.1931
rfoot -18.3507 18.478
rtoes 34.8212
lfemur -51.2912 -7.19806 -6.41087
ltibia 72.9449
lfoot 8.79009 1.53203
ltoes 17.0478
1447
root -5.45862 16.892 21.7524 -173.887 -197.829 -189.92
lowerback 2.59168 1.83881 6.00528
upperback 2.352 2.54757 3.15958
thorax 1.08918 1.33676 -0.146447
lowerneck -10.3541 -4.42131 0.0367921
upperneck 22.1464 -6.78137 3.10343
head 8.72308 -2.83277 0.32977
rclavicle -7.17613e-014 -1.96797e-014
rhumerus -47.5765 -3.81655 -82.937
rradius 40.5653
rwrist 4.05762
rhand -24.0471 -22.742
rfingers 7.12502
rthumb 2.43185 -52.7079
lclavicle -7.17613e-014 -1.96797e-014
lhumerus -26.8735 -13.8428 86.8848
lradius 106.751
lwrist 59.0115
lhand -22.3452 18.9588
lfingers 7.12502
lthumb 4.07544 48.8995
rfemur -19.2145 -3.57503 32.9461
rtibia 31.9858
rfoot -18.4514 18.7426
rtoes 34.86
lfemur -51.5457 -6.43392 -6.44841
ltibia 73.3764
lfoot 8.91263 0.649781
ltoes 21.3738
1448
root -5.44607 16.895 21.7839 -173.819 -197.696 -189.865
lowerback 2.51211 1.85563 5.97556
upperback 2.31208 2.56468 3.09359
thorax 1.09492 1.34469 -0.195985
lowerneck -10.2242 -4.42151 0.0999815
upperneck 21.7897 -6.78027 3.11798
head 8.57572 -2.83731 0.33063
rclavicle -7.12395e-014 -9.93923e-017
rhumerus -47.6974 -3.83542 -82.9566
rradius 40.7889
rwrist 3.696
rhand -23.8775 -22.8465
rfingers 7.12502
rthumb 2.59566 -52.8105
lclavicle -7.12395e-014 -9.93923e-017
lhumerus -27.0709 -13.8456 86.6821
lradius 105.608
lwrist 57.0488
lhand -20.9943 18.2021
lfingers 7.12502
lthumb 5.37986 48.1138
rfemur -19.0382 -3.66877 32.8624
rtibia 31.8373
rfoot -18.5682 18.993
rtoes 34.904
lfemur -51.7527 -5.71474 -6.61258
ltibia 73.7092
lfoot 8.74726 -0.33462
ltoes 24.5568
1449
root -5.43373 16.8946 21.8171 -173.809 -197.538 -189.881
lowerback 2.45442 1.84306 5.96812
upperback 2.30199 2.54329 3.08195
thorax 1.11599 1.3342 -0.201712
lowerneck -10.1286 -4.38404 0.0589789
upperneck 21.4029 -6.70979 3.14557
head 8.42798 -2.81677 0.359557
rclavicle 3.67752e-014 2.17669e-014
rhumerus -47.6933 -3.72098 -82.9598
rradius 40.9251
rwrist 3.49949
rhand -23.6127 -22.9738
rfingers 7.12502
rthumb 2.85143 -52.9345
lclavicle 3.67752e-014 2.17669e-014
lhumerus -27.2337 -13.6487 86.4556
lradius 104.256
lwrist 54.7548
lhand -19.2522 17.4524
lfingers 7.12502
lthumb 7.06174 47.3146
rfemur -18.8324 -3.70782 32.8472
rtibia 31.747
rfoot -18.7643 19.1647
rtoes 34.7127
lfemur -51.8469 -4.99185 -6.64771
ltibia 73.8928
lfoot 8.15301 -1.63038
ltoes 25.7353
1450
root -5.41857 16.8886 21.8521 -173.819 -197.375 -189.885
lowerback 2.4279 1.84523 6.01393
upperback 2.2805 2.54564 3.02582
thorax 1.11351 1.33585 -0.284227
lowerneck -10.0758 -4.36164 0.104114
upperneck 21.0824 -6.67337 3.14317
head 8.30777 -2.80592 0.359115
rclavicle 8.49804e-015 -1.3418e-014
rhumerus -47.6749 -3.61038 -83.0567
rradius 41.0126
rwrist 3.41279
rhand -23.5335 -23.0749
rfingers 7.12502
rthumb 2.92792 -53.0345
lclavicle 8.49804e-015 -1.3418e-014
lhumerus -27.3316 -13.4598 86.2506
lradius 102.704
lwrist 52.1293
lhand -17.2214 16.6454
lfingers 7.12502
lthumb 9.02169 46.4324
rfemur -18.6307 -3.84109 32.809
rtibia 31.7201
rfoot -18.9246 19.4903
rtoes 34.729
lfemur -51.7893 -4.32662 -6.66911
ltibia 73.8363
lfoot 7.06929 -3.00972
ltoes 24.9529
1451
root -5.40144 16.882 21.8887 -173.772 -197.211 -189.872
lowerback 2.37807 1.86898 6.10725
upperback 2.21612 2.57782 2.92566
thorax 1.08564 1.35196 -0.438638
lowerneck -9.90181 -4.36075 0.156703
upperneck 20.6635 -6.6665 3.16592
head 8.13424 -2.81009 0.366611
rclavicle -3.63341e-014 -1.21259e-014
rhumerus -47.6825 -3.6336 -83.0972
rradius 41.1282
rwrist 3.66139
rhand -23.0049 -23.1241
rfingers 7.12502
rthumb 3.43841 -53.0761
lclavicle -3.63341e-014 -1.21259e-014
lhumerus -27.5593 -13.3661 85.9371
lradius 101.211
lwrist 49.7246
lhand -15.1785 15.9347
lfingers 7.12502
lthumb 10.9926 45.6269
rfemur -18.5003 -3.97986 32.7453
rtibia 31.7358
rfoot -19.0175 19.925
rtoes 35.0747
lfemur -51.71 -3.72426 -6.65523
ltibia 73.5198
lfoot 5.78019 -4.43724
ltoes 22.8454
1452
root -5.38457 16.878 21.9261 -173.692 -197.02 -189.881
lowerback 2.26139 1.87447 6.10139
upperback 2.17943 2.57682 2.90526
thorax 1.11375 1.35143 -0.452793
lowerneck -9.82418 -4.32419 0.19398
upperneck 20.2874 -6.59565 3.1141
head 7.98991 -2.79009 0.355783
rclavicle -5.52187e-014 1.65488e-014
rhumerus -47.52 -3.5128 -83.0993
rradius 41.1407
rwrist 3.98918
rhand -23.2238 -23.023
rfingers 7.12502
rthumb 3.22696 -52.9783
lclavicle -5.52187e-014 1.65488e-014
lhumerus -27.9149 -13.2276 85.5004
lradius 99.8351
lwrist 47.3936
lhand -13.1138 15.3158
lfingers 7.12502
lthumb 12.9835 44.8918
rfemur -18.4192 -4.0135 32.7
rtibia 31.7887
rfoot -19.188 20.2911
rtoes 35.2154
lfemur -51.6109 -3.16741 -6.56329
ltibia 72.9473
lfoot 4.4828 -5.87437
ltoes 20.676
1453
root -5.36694 16.8721 21.9655 -173.6 -196.823 -189.882
lowerback 2.16827 1.85711 6.09342
upperback 2.11565 2.54898 2.88346
thorax 1.09921 1.33607 -0.46876
lowerneck -9.69806 -4.27246 0.19508
upperneck 19.8683 -6.49705 3.0705
head 7.82435 -2.76037 0.35783
rclavicle 2.74571e-014 -4.51614e-015
rhumerus -47.3421 -3.27417 -83.1452
rradius 41.1577
rwrist 4.38042
rhand -22.7338 -22.9574
rfingers 7.12502
rthumb 3.70017 -52.905
lclavicle 2.74571e-014 -4.51614e-015
lhumerus -28.1183 -12.7667 85.1735
lradius 98.1248
lwrist 44.9984
lhand -10.5916 14.8424
lfingers 7.12502
lthumb 15.4138 44.2478
rfemur -18.3899 -4.02445 32.6438
rtibia 31.9402
rfoot -19.3205 20.6863
rtoes 35.6588
lfemur -51.4545 -2.6159 -6.4928
ltibia 72.1736
lfoot 3.32377 -7.22112
ltoes 19.0803
1454
root -5.34742 16.8659 22.0065 -173.484 -196.645 -189.813
lowerback 2.0298 1.82799 5.97905
upperback 2.08649 2.49839 2.89243
thorax 1.13832 1.30961 -0.391683
lowerneck -9.65152 -4.2138 0.0987732
upperneck 19.4829 -6.37653 3.03218
head 7.68796 -2.72449 0.377285
rclavicle 4.93545e-015 1.22874e-014
rhumerus -47.0702 -2.94085 -83.1478
rradius 41.1584
rwrist 4.86738
rhand -22.799 -22.8001
rfingers 7.12502
rthumb 3.63716 -52.7489
lclavicle 4.93545e-015 1.22874e-014
lhumerus -28.2723 -12.2123 84.8946
lradius 96.3491
lwrist 42.8734
lhand -8.28898 14.4078
lfingers 7.12502
lthumb 17.6308 43.6284
rfemur -18.3568 -4.09752 32.5107
rtibia 32.0917
rfoot -19.5813 21.0307
rtoes 35.5896
lfemur -51.2356 -2.10928 -6.52175
ltibia 71.1905
lfoot 2.0708 -8.57935
ltoes 17.2201
1455
root -5.32595 16.8466 22.0493 -173.333 -196.464 -189.715
lowerback 1.88668 1.86166 5.89018
upperback 2.01133 2.53425 2.83256
thorax 1.14135 1.32546 -0.400682
lowerneck -9.5193 -4.23598 0.108256
upperneck 19.0359 -6.38659 3.01702
head 7.51639 -2.74285 0.377051
rclavicle 6.13138e-014 3.77008e-014
rhumerus -46.8463 -2.78948 -83.1688
rradius 41.1509
rwrist 5.27414
rhand -22.2169 -22.5604
rfingers 7.12502
rthumb 4.19928 -52.4987
lclavicle 6.13138e-014 3.77008e-014
lhumerus -28.6584 -12.0208 84.5568
lradius 94.7248
lwrist 41.1785
lhand -6.24444 14.0748
lfingers 7.12502
lthumb 19.5974 43.1071
rfemur -18.3794 -4.14371 32.3395
rtibia 32.2944
rfoot -19.8061 21.3887
rtoes 35.7945
lfemur -51.0861 -1.64631 -6.58174
ltibia 70.0922
lfoot 0.915539 -9.85113
ltoes 16.0308
1456
root -5.30545 16.841 22.0937 -173.219 -196.28 -189.675
lowerback 1.78667 1.91702 5.88935
upperback 1.93243 2.60387 2.7592
thorax 1.1229 1.35885 -0.473821
lowerneck -9.39885 -4.26335 0.141622
upperneck 18.5614 -6.40659 2.99986
head 7.33818 -2.76482 0.371537
rclavicle -3.95737e-014 -1.32937e-014
rhumerus -46.6361 -2.69283 -83.2189
rradius 41.2313
rwrist 5.41322
rhand -22.2489 -22.4249
rfingers 7.12502
rthumb 4.16843 -52.3639
lclavicle -3.95737e-014 -1.32937e-014
lhumerus -28.9544 -11.7935 84.1032
lradius 93.0612
lwrist 39.6767
lhand -3.91165 14.212
lfingers 7.12502
lthumb 21.8388 42.9997
rfemur -18.3552 -4.20734 32.2339
rtibia 32.4694
rfoot -20.0222 21.7782
rtoes 35.994
lfemur -50.8086 -1.2019 -6.57265
ltibia 68.7812
lfoot -0.236746 -10.9141
ltoes 15.4046
1457
root -5.28318 16.8345 22.1401 -173.074 -196.074 -189.618
lowerback 1.64474 1.97231 5.84936
upperback 1.84965 2.6698 2.70637
thorax 1.12106 1.39009 -0.502521
lowerneck -9.22876 -4.30257 0.145242
upperneck 18.0397 -6.43158 2.96357
head 7.13703 -2.79456 0.366205
rclavicle 5.8101e-014 2.81032e-014
rhumerus -46.3902 -2.59666 -83.2009
rradius 41.2877
rwrist 5.80826
rhand -21.3803 -22.2258
rfingers 7.12502
rthumb 5.00715 -52.1466
lclavicle 5.8101e-014 2.81032e-014
lhumerus -29.3875 -11.5317 83.6764
lradius 91.4909
lwrist 38.5169
lhand -2.38056 14.4708
lfingers 7.12502
lthumb 23.3083 43.0798
rfemur -18.3582 -4.39616 32.1118
rtibia 32.6501
rfoot -20.2418 22.2804
rtoes 36.0532
lfemur -50.5069 -0.778783 -6.5881
ltibia 67.3475
lfoot -1.20702 -11.7362
ltoes 15.155
1458
root -5.25852 16.8292 22.1881 -172.92 -195.883 -189.472
lowerback 1.48392 1.98365 5.69433
upperback 1.78899 2.67377 2.67128
thorax 1.14298 1.38984 -0.448047
lowerneck -9.04977 -4.29147 0.0416443
upperneck 17.486 -6.37947 2.98057
head 6.92914 -2.79038 0.402953
rclavicle -3.09483e-014 -5.11871e-014
rhumerus -46.1077 -2.22024 -83.2307
rradius 41.4412
rwrist 5.8403
rhand -21.0361 -22.0632
rfingers 7.12502
rthumb 5.33949 -51.9759
lclavicle -3.09483e-014 -5.11871e-014
lhumerus -29.7722 -11.0572 83.2909
lradius 89.8393
lwrist 37.3094
lhand -0.756425 14.9095
lfingers 7.12502
lthumb 24.8657 43.3123
rfemur -18.3025 -4.68555 31.8787
rtibia 32.7543
rfoot -20.3259 22.9285
rtoes 36.4471
lfemur -50.1425 -0.443469 -6.70034
ltibia 65.7891
lfoot -2.14359 -12.258
ltoes 15.0668
